# Blender 4.0.1
# www.blender.org
mtllib kan.mtl
o can2
v 0.003101 -0.665741 0.009158
v 0.372421 -0.665671 -0.360162
v 0.525398 -0.665642 0.009158
v 0.515363 -0.665644 0.111053
v 0.485641 -0.665649 0.209033
v 0.372421 -0.665671 0.378478
v 0.293273 -0.665686 0.443431
v 0.202976 -0.665703 0.491698
v -0.196774 -0.665780 0.491698
v -0.287071 -0.665797 0.443431
v -0.366218 -0.665812 0.378478
v -0.431173 -0.665824 0.299330
v -0.509160 -0.665839 0.111053
v -0.519196 -0.665841 0.009158
v -0.509160 -0.665839 -0.092737
v -0.431173 -0.665824 -0.281014
v -0.366218 -0.665812 -0.360162
v -0.287071 -0.665797 -0.425115
v 0.104875 -0.028898 -0.503103
v 0.002980 -0.028917 -0.513139
v 0.002975 -0.006102 -0.513139
v 0.104870 -0.006083 -0.503103
v 0.202854 -0.028879 -0.473382
v 0.202850 -0.006064 -0.473382
v 0.293152 -0.028862 -0.425115
v 0.293148 -0.006047 -0.425115
v 0.372299 -0.028847 -0.360162
v 0.372295 -0.006032 -0.360162
v 0.437254 -0.028835 -0.281014
v 0.437249 -0.006019 -0.281014
v 0.485519 -0.028825 -0.190717
v 0.485515 -0.006010 -0.190717
v 0.515241 -0.028820 -0.092737
v 0.515237 -0.006004 -0.092737
v 0.525277 -0.028818 0.009158
v 0.525273 -0.006002 0.009158
v 0.515241 -0.028820 0.111053
v 0.515237 -0.006004 0.111053
v 0.485519 -0.028825 0.209033
v 0.485515 -0.006010 0.209033
v 0.437254 -0.028835 0.299330
v 0.437249 -0.006019 0.299330
v 0.372299 -0.028847 0.378478
v 0.372295 -0.006032 0.378478
v 0.293152 -0.028862 0.443431
v 0.293148 -0.006047 0.443431
v 0.202854 -0.028879 0.491698
v 0.202850 -0.006064 0.491698
v 0.104875 -0.028898 0.521419
v 0.104870 -0.006083 0.521419
v 0.002980 -0.028917 0.531455
v 0.002975 -0.006102 0.531455
v -0.098915 -0.028937 0.521419
v -0.098920 -0.006122 0.521419
v -0.196895 -0.028956 0.491698
v -0.196899 -0.006140 0.491698
v -0.287193 -0.028973 0.443431
v -0.287197 -0.006157 0.443431
v -0.366340 -0.028988 0.378478
v -0.366344 -0.006173 0.378478
v -0.431294 -0.029000 0.299330
v -0.431299 -0.006185 0.299330
v -0.479560 -0.029009 0.209033
v -0.479564 -0.006194 0.209033
v -0.509282 -0.029015 0.111053
v -0.509286 -0.006200 0.111053
v -0.519318 -0.029017 0.009158
v -0.519322 -0.006202 0.009158
v -0.509282 -0.029015 -0.092737
v -0.509286 -0.006200 -0.092737
v -0.479560 -0.029009 -0.190717
v -0.479564 -0.006194 -0.190717
v -0.431294 -0.029000 -0.281014
v -0.431299 -0.006185 -0.281014
v -0.366340 -0.028988 -0.360162
v -0.366344 -0.006172 -0.360162
v -0.287193 -0.028973 -0.425115
v -0.287197 -0.006157 -0.425115
v -0.196895 -0.028955 -0.473382
v -0.196899 -0.006140 -0.473382
v -0.098915 -0.028937 -0.503103
v -0.098920 -0.006122 -0.503103
v 0.003097 -0.642362 -0.513139
v 0.104992 -0.642343 -0.503103
v 0.104996 -0.665722 -0.503103
v 0.003101 -0.665742 -0.513139
v 0.202971 -0.642324 -0.473381
v 0.202976 -0.665703 -0.473381
v 0.293269 -0.642307 -0.425115
v 0.293273 -0.665686 -0.425115
v 0.372416 -0.642292 -0.360162
v 0.437371 -0.642279 -0.281014
v 0.437375 -0.665659 -0.281014
v 0.485636 -0.642270 -0.190717
v 0.485641 -0.665649 -0.190717
v 0.515358 -0.642264 -0.092737
v 0.515363 -0.665644 -0.092737
v 0.525394 -0.642262 0.009158
v 0.515358 -0.642264 0.111053
v 0.485636 -0.642270 0.209033
v 0.437371 -0.642279 0.299330
v 0.437375 -0.665659 0.299330
v 0.372416 -0.642292 0.378478
v 0.293269 -0.642307 0.443431
v 0.202971 -0.642324 0.491698
v 0.104992 -0.642343 0.521419
v 0.104996 -0.665722 0.521419
v 0.003097 -0.642362 0.531455
v 0.003101 -0.665742 0.531455
v -0.098798 -0.642381 0.521419
v -0.098794 -0.665761 0.521419
v -0.196778 -0.642400 0.491698
v -0.287076 -0.642417 0.443431
v -0.366223 -0.642432 0.378478
v -0.431177 -0.642445 0.299330
v -0.479443 -0.642454 0.209033
v -0.479439 -0.665833 0.209033
v -0.509165 -0.642460 0.111053
v -0.519200 -0.642462 0.009158
v -0.509165 -0.642460 -0.092737
v -0.479443 -0.642454 -0.190717
v -0.479439 -0.665833 -0.190717
v -0.431177 -0.642445 -0.281014
v -0.366223 -0.642432 -0.360162
v -0.287076 -0.642417 -0.425115
v -0.196778 -0.642400 -0.473381
v -0.196774 -0.665780 -0.473381
v -0.098798 -0.642381 -0.503103
v -0.098794 -0.665761 -0.503103
vn -0.1421 0.6857 0.7139
vn -0.0001 0.6857 0.7279
vn -0.0002 1.0000 -0.0000
vn -0.2787 0.6856 0.6725
vn -0.4045 0.6856 0.6052
vn -0.5148 0.6856 0.5147
vn -0.6053 0.6856 0.4044
vn -0.6726 0.6856 0.2786
vn -0.7140 0.6856 0.1420
vn -0.7280 0.6856 -0.0000
vn -0.7140 0.6856 -0.1420
vn -0.6726 0.6856 -0.2786
vn -0.6053 0.6856 -0.4044
vn -0.5148 0.6856 -0.5147
vn -0.4045 0.6856 -0.6052
vn -0.2787 0.6856 -0.6725
vn -0.1421 0.6857 -0.7139
vn -0.0001 0.6857 -0.7279
vn 0.1419 0.6857 -0.7139
vn 0.2784 0.6857 -0.6725
vn 0.4043 0.6858 -0.6052
vn 0.5146 0.6858 -0.5147
vn 0.6051 0.6858 -0.4044
vn 0.6724 0.6858 -0.2786
vn 0.7138 0.6858 -0.1420
vn 0.7278 0.6858 -0.0000
vn 0.7138 0.6858 0.1420
vn 0.6723 0.6858 0.2786
vn 0.6051 0.6858 0.4044
vn 0.5146 0.6858 0.5147
vn 0.4043 0.6858 0.6052
vn 0.2784 0.6857 0.6725
vn 0.1419 0.6857 0.7139
vn -0.0000 -0.0000 1.0000
vn -0.1951 -0.0000 0.9808
vn -0.3827 -0.0001 0.9239
vn -0.5556 -0.0001 0.8315
vn -0.7071 -0.0001 0.7071
vn -0.8315 -0.0002 0.5556
vn -0.9239 -0.0002 0.3827
vn -0.9808 -0.0002 0.1951
vn -1.0000 -0.0002 -0.0000
vn -0.9808 -0.0002 -0.1951
vn -0.9239 -0.0002 -0.3827
vn -0.8315 -0.0002 -0.5556
vn -0.7071 -0.0001 -0.7071
vn -0.5556 -0.0001 -0.8315
vn -0.3827 -0.0001 -0.9239
vn -0.1951 -0.0000 -0.9808
vn -0.0000 -0.0000 -1.0000
vn 0.1951 -0.0000 -0.9808
vn 0.3827 0.0001 -0.9239
vn 0.5556 0.0001 -0.8315
vn 0.7071 0.0001 -0.7071
vn 0.8315 0.0002 -0.5556
vn 0.9239 0.0002 -0.3827
vn 0.9808 0.0002 -0.1951
vn 1.0000 0.0002 -0.0000
vn 0.9808 0.0002 0.1951
vn 0.9239 0.0002 0.3827
vn 0.8315 0.0002 0.5556
vn 0.7071 0.0001 0.7071
vn 0.5556 0.0001 0.8315
vn 0.3827 0.0001 0.9239
vn 0.1951 -0.0000 0.9808
vt 0.616693 0.483846
vt 0.617279 0.506928
vt 0.499952 0.498038
vt 0.611612 0.461340
vt 0.602252 0.440273
vt 0.588977 0.421442
vt 0.572298 0.405565
vt 0.552852 0.393246
vt 0.531385 0.384953
vt 0.508717 0.381002
vt 0.485716 0.381545
vt 0.463264 0.386561
vt 0.442220 0.395858
vt 0.423392 0.409080
vt 0.407503 0.425720
vt 0.395164 0.445141
vt 0.386850 0.466598
vt 0.382882 0.489266
vt 0.383413 0.512275
vt 0.388424 0.534739
vt 0.397724 0.555793
vt 0.410956 0.574628
vt 0.427610 0.590515
vt 0.447044 0.602844
vt 0.468510 0.611137
vt 0.491177 0.615075
vt 0.514169 0.614507
vt 0.536596 0.609456
vt 0.557590 0.600124
vt 0.576340 0.586877
vt 0.592132 0.570247
vt 0.604441 0.550919
vt 0.613266 0.529657
vt 0.996634 0.543450
vt 0.975377 0.541642
vt 0.974692 0.448393
vt 0.995902 0.446158
vt 0.956119 0.357009
vt 0.976518 0.350723
vt 0.920169 0.270888
vt 0.938980 0.260754
vt 0.868123 0.193323
vt 0.884621 0.179713
vt 0.801923 0.127306
vt 0.815469 0.110730
vt 0.724072 0.075395
vt 0.734139 0.056482
vt 0.637531 0.039610
vt 0.643726 0.019083
vt 0.545606 0.021357
vt 0.547685 -0.000000
vt 0.451819 0.021368
vt 0.449693 -0.000000
vt 0.359767 0.039673
vt 0.353513 0.019115
vt 0.272993 0.075596
vt 0.262844 0.056639
vt 0.194838 0.127784
vt 0.181178 0.111159
vt 0.128319 0.194254
vt 0.111668 0.180603
vt 0.076009 0.272470
vt 0.057004 0.262323
vt 0.039939 0.359441
vt 0.019307 0.353193
vt 0.021519 0.451835
vt 0.000051 0.449731
vt 0.021480 0.546106
vt -0.000000 0.548233
vt 0.039849 0.638631
vt 0.019184 0.644913
vt 0.075945 0.725849
vt 0.056891 0.736050
vt 0.128407 0.804395
vt 0.111699 0.818129
vt 0.195240 0.871236
vt 0.181525 0.887980
vt 0.273895 0.923778
vt 0.263706 0.942893
vt 0.361366 0.959976
vt 0.355102 0.980729
vt 0.454300 0.978404
vt 0.452210 1.000000
vt 0.549128 0.978315
vt 0.551301 0.999923
vt 0.642198 0.959667
vt 0.648563 0.980454
vt 0.729903 0.923125
vt 0.740232 0.942282
vt 0.808799 0.870022
vt 0.822722 0.886782
vt 0.875621 0.802314
vt 0.892646 0.815920
vt 0.927055 0.722623
vt 0.946509 0.732150
vt 0.958569 0.633718
vt 0.979349 0.639263
vt 0.622131 0.483137
vt 0.622758 0.507306
vt 0.616802 0.459587
vt 0.606997 0.437544
vt 0.593098 0.417844
vt 0.575638 0.401235
vt 0.555284 0.388349
vt 0.532816 0.379678
vt 0.509093 0.375550
vt 0.485022 0.376125
vt 0.461526 0.381380
vt 0.439506 0.391115
vt 0.419805 0.404957
vt 0.403181 0.422376
vt 0.390272 0.442704
vt 0.381577 0.465162
vt 0.377429 0.488887
vt 0.377990 0.512967
vt 0.383240 0.536476
vt 0.392979 0.558509
vt 0.406832 0.578218
vt 0.424267 0.594841
vt 0.444611 0.607739
vt 0.467080 0.616412
vt 0.490806 0.620526
vt 0.514871 0.619924
vt 0.538343 0.614629
vt 0.560313 0.604852
vt 0.579929 0.590978
vt 0.596439 0.573571
vt 0.609259 0.553397
vt 0.618557 0.531177
s 1
usemtl saba_mat_can
f 85/1/1 86/2/2 1/3/3
f 88/4/4 85/1/1 1/3/3
f 90/5/5 88/4/4 1/3/3
f 2/6/6 90/5/5 1/3/3
f 93/7/7 2/6/6 1/3/3
f 95/8/8 93/7/7 1/3/3
f 97/9/9 95/8/8 1/3/3
f 3/10/10 97/9/9 1/3/3
f 4/11/11 3/10/10 1/3/3
f 5/12/12 4/11/11 1/3/3
f 102/13/13 5/12/12 1/3/3
f 6/14/14 102/13/13 1/3/3
f 7/15/15 6/14/14 1/3/3
f 8/16/16 7/15/15 1/3/3
f 107/17/17 8/16/16 1/3/3
f 109/18/18 107/17/17 1/3/3
f 111/19/19 109/18/18 1/3/3
f 9/20/20 111/19/19 1/3/3
f 10/21/21 9/20/20 1/3/3
f 11/22/22 10/21/21 1/3/3
f 12/23/23 11/22/22 1/3/3
f 117/24/24 12/23/23 1/3/3
f 13/25/25 117/24/24 1/3/3
f 14/26/26 13/25/25 1/3/3
f 15/27/27 14/26/26 1/3/3
f 122/28/28 15/27/27 1/3/3
f 16/29/29 122/28/28 1/3/3
f 17/30/30 16/29/29 1/3/3
f 18/31/31 17/30/30 1/3/3
f 127/32/32 18/31/31 1/3/3
f 129/33/33 127/32/32 1/3/3
f 86/2/2 129/33/33 1/3/3
f 21/34/34 20/35/34 19/36/35
f 22/37/35 21/34/34 19/36/35
f 22/37/35 19/36/35 23/38/36
f 24/39/36 22/37/35 23/38/36
f 24/39/36 23/38/36 25/40/37
f 26/41/37 24/39/36 25/40/37
f 26/41/37 25/40/37 27/42/38
f 28/43/38 26/41/37 27/42/38
f 28/43/38 27/42/38 29/44/39
f 30/45/39 28/43/38 29/44/39
f 30/45/39 29/44/39 31/46/40
f 32/47/40 30/45/39 31/46/40
f 32/47/40 31/46/40 33/48/41
f 34/49/41 32/47/40 33/48/41
f 34/49/41 33/48/41 35/50/42
f 36/51/42 34/49/41 35/50/42
f 36/51/42 35/50/42 37/52/43
f 38/53/43 36/51/42 37/52/43
f 38/53/43 37/52/43 39/54/44
f 40/55/44 38/53/43 39/54/44
f 40/55/44 39/54/44 41/56/45
f 42/57/45 40/55/44 41/56/45
f 42/57/45 41/56/45 43/58/46
f 44/59/46 42/57/45 43/58/46
f 44/59/46 43/58/46 45/60/47
f 46/61/47 44/59/46 45/60/47
f 46/61/47 45/60/47 47/62/48
f 48/63/48 46/61/47 47/62/48
f 48/63/48 47/62/48 49/64/49
f 50/65/49 48/63/48 49/64/49
f 50/65/49 49/64/49 51/66/50
f 52/67/50 50/65/49 51/66/50
f 52/67/50 51/66/50 53/68/51
f 54/69/51 52/67/50 53/68/51
f 54/69/51 53/68/51 55/70/52
f 56/71/52 54/69/51 55/70/52
f 56/71/52 55/70/52 57/72/53
f 58/73/53 56/71/52 57/72/53
f 58/73/53 57/72/53 59/74/54
f 60/75/54 58/73/53 59/74/54
f 60/75/54 59/74/54 61/76/55
f 62/77/55 60/75/54 61/76/55
f 62/77/55 61/76/55 63/78/56
f 64/79/56 62/77/55 63/78/56
f 64/79/56 63/78/56 65/80/57
f 66/81/57 64/79/56 65/80/57
f 66/81/57 65/80/57 67/82/58
f 68/83/58 66/81/57 67/82/58
f 68/83/58 67/82/58 69/84/59
f 70/85/59 68/83/58 69/84/59
f 70/85/59 69/84/59 71/86/60
f 72/87/60 70/85/59 71/86/60
f 72/87/60 71/86/60 73/88/61
f 74/89/61 72/87/60 73/88/61
f 74/89/61 73/88/61 75/90/62
f 76/91/62 74/89/61 75/90/62
f 76/91/62 75/90/62 77/92/63
f 78/93/63 76/91/62 77/92/63
f 78/93/63 77/92/63 79/94/64
f 80/95/64 78/93/63 79/94/64
f 80/95/64 79/94/64 81/96/65
f 82/97/65 80/95/64 81/96/65
f 82/97/65 81/96/65 20/35/34
f 21/34/34 82/97/65 20/35/34
f 85/1/1 84/98/35 83/99/34
f 86/2/2 85/1/1 83/99/34
f 19/36/35 20/35/34 83/99/34
f 84/98/35 19/36/35 83/99/34
f 88/4/4 87/100/36 84/98/35
f 85/1/1 88/4/4 84/98/35
f 23/38/36 19/36/35 84/98/35
f 87/100/36 23/38/36 84/98/35
f 90/5/5 89/101/37 87/100/36
f 88/4/4 90/5/5 87/100/36
f 25/40/37 23/38/36 87/100/36
f 89/101/37 25/40/37 87/100/36
f 2/6/6 91/102/38 89/101/37
f 90/5/5 2/6/6 89/101/37
f 27/42/38 25/40/37 89/101/37
f 91/102/38 27/42/38 89/101/37
f 93/7/7 92/103/39 91/102/38
f 2/6/6 93/7/7 91/102/38
f 29/44/39 27/42/38 91/102/38
f 92/103/39 29/44/39 91/102/38
f 95/8/8 94/104/40 92/103/39
f 93/7/7 95/8/8 92/103/39
f 31/46/40 29/44/39 92/103/39
f 94/104/40 31/46/40 92/103/39
f 97/9/9 96/105/41 94/104/40
f 95/8/8 97/9/9 94/104/40
f 33/48/41 31/46/40 94/104/40
f 96/105/41 33/48/41 94/104/40
f 3/10/10 98/106/42 96/105/41
f 97/9/9 3/10/10 96/105/41
f 35/50/42 33/48/41 96/105/41
f 98/106/42 35/50/42 96/105/41
f 4/11/11 99/107/43 98/106/42
f 3/10/10 4/11/11 98/106/42
f 37/52/43 35/50/42 98/106/42
f 99/107/43 37/52/43 98/106/42
f 5/12/12 100/108/44 99/107/43
f 4/11/11 5/12/12 99/107/43
f 39/54/44 37/52/43 99/107/43
f 100/108/44 39/54/44 99/107/43
f 102/13/13 101/109/45 100/108/44
f 5/12/12 102/13/13 100/108/44
f 41/56/45 39/54/44 100/108/44
f 101/109/45 41/56/45 100/108/44
f 6/14/14 103/110/46 101/109/45
f 102/13/13 6/14/14 101/109/45
f 43/58/46 41/56/45 101/109/45
f 103/110/46 43/58/46 101/109/45
f 7/15/15 104/111/47 103/110/46
f 6/14/14 7/15/15 103/110/46
f 45/60/47 43/58/46 103/110/46
f 104/111/47 45/60/47 103/110/46
f 8/16/16 105/112/48 104/111/47
f 7/15/15 8/16/16 104/111/47
f 47/62/48 45/60/47 104/111/47
f 105/112/48 47/62/48 104/111/47
f 107/17/17 106/113/49 105/112/48
f 8/16/16 107/17/17 105/112/48
f 49/64/49 47/62/48 105/112/48
f 106/113/49 49/64/49 105/112/48
f 109/18/18 108/114/50 106/113/49
f 107/17/17 109/18/18 106/113/49
f 51/66/50 49/64/49 106/113/49
f 108/114/50 51/66/50 106/113/49
f 111/19/19 110/115/51 108/114/50
f 109/18/18 111/19/19 108/114/50
f 53/68/51 51/66/50 108/114/50
f 110/115/51 53/68/51 108/114/50
f 9/20/20 112/116/52 110/115/51
f 111/19/19 9/20/20 110/115/51
f 55/70/52 53/68/51 110/115/51
f 112/116/52 55/70/52 110/115/51
f 10/21/21 113/117/53 112/116/52
f 9/20/20 10/21/21 112/116/52
f 57/72/53 55/70/52 112/116/52
f 113/117/53 57/72/53 112/116/52
f 11/22/22 114/118/54 113/117/53
f 10/21/21 11/22/22 113/117/53
f 59/74/54 57/72/53 113/117/53
f 114/118/54 59/74/54 113/117/53
f 12/23/23 115/119/55 114/118/54
f 11/22/22 12/23/23 114/118/54
f 61/76/55 59/74/54 114/118/54
f 115/119/55 61/76/55 114/118/54
f 117/24/24 116/120/56 115/119/55
f 12/23/23 117/24/24 115/119/55
f 63/78/56 61/76/55 115/119/55
f 116/120/56 63/78/56 115/119/55
f 13/25/25 118/121/57 116/120/56
f 117/24/24 13/25/25 116/120/56
f 65/80/57 63/78/56 116/120/56
f 118/121/57 65/80/57 116/120/56
f 14/26/26 119/122/58 118/121/57
f 13/25/25 14/26/26 118/121/57
f 67/82/58 65/80/57 118/121/57
f 119/122/58 67/82/58 118/121/57
f 15/27/27 120/123/59 119/122/58
f 14/26/26 15/27/27 119/122/58
f 69/84/59 67/82/58 119/122/58
f 120/123/59 69/84/59 119/122/58
f 122/28/28 121/124/60 120/123/59
f 15/27/27 122/28/28 120/123/59
f 71/86/60 69/84/59 120/123/59
f 121/124/60 71/86/60 120/123/59
f 16/29/29 123/125/61 121/124/60
f 122/28/28 16/29/29 121/124/60
f 73/88/61 71/86/60 121/124/60
f 123/125/61 73/88/61 121/124/60
f 17/30/30 124/126/62 123/125/61
f 16/29/29 17/30/30 123/125/61
f 75/90/62 73/88/61 123/125/61
f 124/126/62 75/90/62 123/125/61
f 18/31/31 125/127/63 124/126/62
f 17/30/30 18/31/31 124/126/62
f 77/92/63 75/90/62 124/126/62
f 125/127/63 77/92/63 124/126/62
f 127/32/32 126/128/64 125/127/63
f 18/31/31 127/32/32 125/127/63
f 79/94/64 77/92/63 125/127/63
f 126/128/64 79/94/64 125/127/63
f 129/33/33 128/129/65 126/128/64
f 127/32/32 129/33/33 126/128/64
f 128/129/65 81/96/65 79/94/64
f 126/128/64 128/129/65 79/94/64
f 86/2/2 83/99/34 128/129/65
f 129/33/33 86/2/2 128/129/65
f 20/35/34 81/96/65 128/129/65
f 83/99/34 20/35/34 128/129/65
