# Blender 4.0.1
# www.blender.org
mtllib kanFade.mtl
o canMask2
v -0.001953 -0.668834 0.009158
v -0.001953 -0.668834 0.009158
v 0.371858 -0.668834 -0.364652
v 0.371858 -0.668834 -0.364652
v 0.526695 -0.668834 0.009158
v 0.526695 -0.668834 0.009158
v 0.516538 -0.668834 0.112292
v 0.516538 -0.668834 0.112292
v 0.486454 -0.668834 0.211463
v 0.486454 -0.668834 0.211463
v 0.371858 -0.668834 0.382968
v 0.371858 -0.668834 0.382968
v 0.371858 -0.668834 0.382968
v 0.291748 -0.668834 0.448712
v 0.291748 -0.668834 0.448712
v 0.291748 -0.668834 0.448712
v 0.200352 -0.668834 0.497565
v 0.200352 -0.668834 0.497565
v -0.204258 -0.668834 0.497565
v -0.204258 -0.668834 0.497565
v -0.295653 -0.668834 0.448712
v -0.295653 -0.668834 0.448712
v -0.375763 -0.668834 0.382968
v -0.375763 -0.668834 0.382968
v -0.441507 -0.668834 0.302859
v -0.441507 -0.668834 0.302859
v -0.520443 -0.668834 0.112292
v -0.520443 -0.668834 0.112292
v -0.530601 -0.668834 0.009158
v -0.530601 -0.668834 0.009158
v -0.520443 -0.668834 -0.093976
v -0.520443 -0.668834 -0.093976
v -0.441507 -0.668834 -0.284543
v -0.441507 -0.668834 -0.284543
v -0.375763 -0.668834 -0.364652
v -0.375763 -0.668834 -0.364652
v -0.375763 -0.668834 -0.364652
v -0.295653 -0.668834 -0.430396
v -0.295653 -0.668834 -0.430396
v -0.295653 -0.668834 -0.430396
v 0.101181 -0.024267 -0.509332
v -0.001953 -0.024267 -0.519490
v -0.001953 -0.001174 -0.519490
v 0.101181 -0.001174 -0.509332
v 0.200352 -0.024267 -0.479249
v 0.200352 -0.001174 -0.479249
v 0.291748 -0.024267 -0.430396
v 0.291748 -0.001174 -0.430396
v 0.371858 -0.024267 -0.364652
v 0.371858 -0.001174 -0.364652
v 0.437602 -0.024267 -0.284543
v 0.437602 -0.001174 -0.284543
v 0.486454 -0.024267 -0.193147
v 0.486454 -0.001174 -0.193147
v 0.516538 -0.024267 -0.093976
v 0.516538 -0.001174 -0.093976
v 0.526695 -0.024267 0.009158
v 0.526695 -0.001174 0.009158
v 0.516538 -0.024267 0.112292
v 0.516538 -0.001174 0.112292
v 0.486454 -0.024267 0.211463
v 0.486454 -0.001174 0.211463
v 0.437602 -0.024267 0.302859
v 0.437602 -0.001174 0.302859
v 0.371858 -0.024267 0.382968
v 0.371858 -0.001174 0.382968
v 0.291748 -0.024267 0.448712
v 0.291748 -0.001174 0.448712
v 0.200352 -0.024267 0.497565
v 0.200352 -0.001174 0.497565
v 0.101181 -0.024267 0.527648
v 0.101181 -0.001174 0.527648
v -0.001953 -0.024267 0.537806
v -0.001953 -0.001174 0.537806
v -0.105087 -0.024267 0.527648
v -0.105087 -0.001174 0.527648
v -0.204258 -0.024267 0.497565
v -0.204258 -0.001174 0.497565
v -0.295653 -0.024267 0.448712
v -0.295653 -0.001174 0.448712
v -0.375763 -0.024267 0.382968
v -0.375763 -0.001174 0.382968
v -0.441507 -0.024267 0.302859
v -0.441507 -0.001174 0.302859
v -0.490360 -0.024267 0.211463
v -0.490360 -0.001174 0.211463
v -0.520443 -0.024267 0.112292
v -0.520443 -0.001174 0.112292
v -0.530601 -0.024267 0.009158
v -0.530601 -0.001174 0.009158
v -0.520443 -0.024267 -0.093976
v -0.520443 -0.001174 -0.093976
v -0.490360 -0.024267 -0.193147
v -0.490360 -0.001174 -0.193147
v -0.441507 -0.024267 -0.284543
v -0.441507 -0.001174 -0.284543
v -0.375763 -0.024267 -0.364652
v -0.375763 -0.001174 -0.364652
v -0.295653 -0.024267 -0.430396
v -0.295653 -0.001174 -0.430396
v -0.204258 -0.024267 -0.479249
v -0.204258 -0.001174 -0.479249
v -0.105087 -0.024267 -0.509332
v -0.105087 -0.001174 -0.509332
v -0.001953 -0.645171 -0.519490
v 0.101181 -0.645171 -0.509332
v 0.101181 -0.668834 -0.509332
v 0.101181 -0.668834 -0.509332
v -0.001953 -0.668834 -0.519490
v -0.001953 -0.668834 -0.519490
v 0.200352 -0.645171 -0.479248
v 0.200352 -0.668834 -0.479248
v 0.200352 -0.668834 -0.479248
v 0.291748 -0.645171 -0.430396
v 0.291748 -0.668834 -0.430396
v 0.291748 -0.668834 -0.430396
v 0.371858 -0.645171 -0.364652
v 0.437602 -0.645171 -0.284543
v 0.437602 -0.668834 -0.284543
v 0.437602 -0.668834 -0.284543
v 0.486454 -0.645171 -0.193147
v 0.486454 -0.668834 -0.193147
v 0.486454 -0.668834 -0.193147
v 0.516538 -0.645171 -0.093976
v 0.516538 -0.668834 -0.093976
v 0.516538 -0.668834 -0.093976
v 0.526695 -0.645171 0.009158
v 0.516538 -0.645171 0.112292
v 0.486454 -0.645171 0.211463
v 0.437602 -0.645171 0.302859
v 0.437602 -0.668834 0.302859
v 0.437602 -0.668834 0.302859
v 0.371858 -0.645171 0.382968
v 0.291748 -0.645171 0.448712
v 0.200352 -0.645171 0.497565
v 0.101181 -0.645171 0.527648
v 0.101181 -0.668834 0.527648
v 0.101181 -0.668834 0.527648
v -0.001953 -0.645171 0.537806
v -0.001953 -0.668834 0.537806
v -0.001953 -0.668834 0.537806
v -0.105087 -0.645171 0.527648
v -0.105087 -0.668834 0.527648
v -0.105087 -0.668834 0.527648
v -0.204258 -0.645171 0.497565
v -0.295653 -0.645171 0.448712
v -0.375763 -0.645171 0.382968
v -0.441507 -0.645171 0.302859
v -0.490360 -0.645171 0.211463
v -0.490360 -0.668834 0.211463
v -0.490360 -0.668834 0.211463
v -0.520443 -0.645171 0.112292
v -0.530601 -0.645171 0.009158
v -0.520443 -0.645171 -0.093976
v -0.490360 -0.645171 -0.193147
v -0.490360 -0.668834 -0.193147
v -0.490360 -0.668834 -0.193147
v -0.441507 -0.645171 -0.284543
v -0.375763 -0.645171 -0.364652
v -0.295653 -0.645171 -0.430396
v -0.204258 -0.645171 -0.479248
v -0.204258 -0.668834 -0.479248
v -0.204258 -0.668834 -0.479248
v -0.105087 -0.645171 -0.509332
v -0.105087 -0.668834 -0.509332
v -0.105087 -0.668834 -0.509332
vn -0.0000 -1.0000 -0.0000
vn -0.0000 -0.0000 -1.0000
vn 0.1951 -0.0000 -0.9808
vn 0.3827 -0.0000 -0.9239
vn 0.5556 -0.0000 -0.8315
vn 0.7071 -0.0000 -0.7071
vn 0.8315 -0.0000 -0.5556
vn 0.9239 -0.0000 -0.3827
vn 0.9808 -0.0000 -0.1951
vn 1.0000 -0.0000 -0.0000
vn 0.9808 -0.0000 0.1951
vn 0.9239 -0.0000 0.3827
vn 0.8315 -0.0000 0.5556
vn 0.7071 -0.0000 0.7071
vn 0.5556 -0.0000 0.8315
vn 0.3827 -0.0000 0.9239
vn 0.1951 -0.0000 0.9808
vn -0.0000 -0.0000 1.0000
vn -0.1951 -0.0000 0.9808
vn -0.3827 -0.0000 0.9239
vn -0.5556 -0.0000 0.8315
vn -0.7071 -0.0000 0.7071
vn -0.8315 -0.0000 0.5556
vn -0.9239 -0.0000 0.3827
vn -0.9808 -0.0000 0.1951
vn -1.0000 -0.0000 -0.0000
vn -0.9808 -0.0000 -0.1951
vn -0.9239 -0.0000 -0.3827
vn -0.8315 -0.0000 -0.5556
vn -0.7071 -0.0000 -0.7071
vn -0.5556 -0.0000 -0.8315
vn -0.3827 -0.0000 -0.9239
vn -0.1951 -0.0000 -0.9808
vt 0.180222 0.376324
vt 0.000000 0.093334
vt 0.208787 0.359371
vt 0.152026 0.391916
vt 0.124023 0.405672
vt 0.096084 0.417177
vt 0.068132 0.426077
vt 0.040134 0.432097
vt 0.012095 0.435044
vt 0.984041 0.434825
vt 1.000000 0.093334
vt 1.012095 0.435044
vt 0.956006 0.431446
vt 0.928015 0.425017
vt 0.900068 0.415740
vt 0.872125 0.403902
vt 0.844104 0.389867
vt 0.815870 0.374058
vt 0.787236 0.356958
vt 0.757973 0.339101
vt 0.727810 0.321081
vt 0.696464 0.303551
vt 0.663665 0.287225
vt 0.629222 0.272870
vt 0.593092 0.261267
vt 0.555467 0.253147
vt 0.516813 0.249084
vt 0.477824 0.249388
vt 0.439275 0.254035
vt 0.401835 0.262674
vt 0.365932 0.274701
vt 0.331722 0.289375
vt 0.299137 0.305911
vt 0.267971 0.323550
vt 0.237949 0.341585
vt 0.266246 0.699377
vt 0.234288 0.708673
vt 0.264242 0.690635
vt 0.236379 0.717414
vt 0.202924 0.726361
vt 0.205032 0.735148
vt 0.169811 0.742979
vt 0.171841 0.751855
vt 0.134676 0.757723
vt 0.136500 0.766724
vt 0.097416 0.769745
vt 0.098879 0.778885
vt 0.058226 0.778223
vt 0.059167 0.787483
vt 0.017679 0.782487
vt 0.017976 0.791816
vt 1.017976 0.791816
vt 0.976686 0.782168
vt 1.017679 0.782487
vt 0.976295 0.791491
vt 0.936278 0.777293
vt 0.935256 0.786539
vt 0.897328 0.768282
vt 0.895805 0.777403
vt 0.860357 0.755834
vt 0.858496 0.764817
vt 0.825512 0.740782
vt 0.823464 0.749644
vt 0.792659 0.723972
vt 0.790547 0.732749
vt 0.761510 0.706194
vt 0.759427 0.714933
vt 0.731722 0.688160
vt 0.729735 0.696905
vt 0.702959 0.670500
vt 0.701115 0.679291
vt 0.674921 0.653773
vt 0.673257 0.662639
vt 0.647359 0.638472
vt 0.645903 0.647432
vt 0.620079 0.625036
vt 0.618856 0.634098
vt 0.592942 0.613843
vt 0.591972 0.623003
vt 0.565857 0.605211
vt 0.565157 0.614454
vt 0.538775 0.599386
vt 0.538358 0.608689
vt 0.511682 0.596538
vt 0.511556 0.605871
vt 0.484584 0.596750
vt 0.484751 0.606080
vt 0.457493 0.600015
vt 0.457950 0.609311
vt 0.430413 0.606238
vt 0.431151 0.615471
vt 0.403324 0.615240
vt 0.404330 0.624386
vt 0.376173 0.626762
vt 0.377430 0.635810
vt 0.348864 0.640478
vt 0.350350 0.649425
vt 0.321250 0.656002
vt 0.322940 0.664857
vt 0.293127 0.672889
vt 0.294993 0.681672
vt 0.210730 0.370021
vt 0.182002 0.387045
vt 0.153605 0.402732
vt 0.125365 0.416595
vt 0.097158 0.428204
vt 0.068912 0.437196
vt 0.040602 0.443282
vt 0.012237 0.446263
vt 1.012237 0.446263
vt 0.983853 0.446042
vt 0.955494 0.442624
vt 0.927192 0.436124
vt 0.898955 0.426753
vt 0.870749 0.414810
vt 0.842495 0.400669
vt 0.814064 0.384768
vt 0.785275 0.367601
vt 0.755904 0.349714
vt 0.725695 0.331706
vt 0.694378 0.314233
vt 0.661704 0.298006
vt 0.627502 0.283778
vt 0.591743 0.272310
vt 0.554614 0.264301
vt 0.516547 0.260300
vt 0.478175 0.260599
vt 0.440203 0.265177
vt 0.403242 0.273699
vt 0.367693 0.285591
vt 0.333706 0.300140
vt 0.301232 0.316582
vt 0.270083 0.334170
vt 0.240005 0.352199
s 1
usemtl mask
f 108/1/1 1/2/1 110/3/1
f 113/4/1 1/2/1 108/1/1
f 116/5/1 1/2/1 113/4/1
f 4/6/1 1/2/1 116/5/1
f 120/7/1 1/2/1 4/6/1
f 123/8/1 1/2/1 120/7/1
f 126/9/1 1/2/1 123/8/1
f 6/10/1 1/11/1 126/12/1
f 8/13/1 1/11/1 6/10/1
f 10/14/1 1/11/1 8/13/1
f 132/15/1 1/11/1 10/14/1
f 12/16/1 1/11/1 132/15/1
f 16/17/1 2/11/1 13/16/1
f 18/18/1 1/11/1 15/17/1
f 138/19/1 1/11/1 18/18/1
f 141/20/1 1/11/1 138/19/1
f 143/21/1 1/11/1 141/20/1
f 19/22/1 1/11/1 143/21/1
f 21/23/1 1/11/1 19/22/1
f 23/24/1 1/11/1 21/23/1
f 25/25/1 1/11/1 23/24/1
f 150/26/1 1/11/1 25/25/1
f 27/27/1 1/11/1 150/26/1
f 29/28/1 1/2/1 27/27/1
f 31/29/1 1/2/1 29/28/1
f 156/30/1 1/2/1 31/29/1
f 33/31/1 1/2/1 156/30/1
f 35/32/1 1/2/1 33/31/1
f 39/33/1 2/2/1 36/32/1
f 162/34/1 1/2/1 38/33/1
f 165/35/1 1/2/1 162/34/1
f 110/3/1 1/2/1 165/35/1
f 43/36/2 41/37/3 42/38/2
f 44/39/3 41/37/3 43/36/2
f 44/39/3 45/40/4 41/37/3
f 46/41/4 45/40/4 44/39/3
f 46/41/4 47/42/5 45/40/4
f 48/43/5 47/42/5 46/41/4
f 48/43/5 49/44/6 47/42/5
f 50/45/6 49/44/6 48/43/5
f 50/45/6 51/46/7 49/44/6
f 52/47/7 51/46/7 50/45/6
f 52/47/7 53/48/8 51/46/7
f 54/49/8 53/48/8 52/47/7
f 54/49/8 55/50/9 53/48/8
f 56/51/9 55/50/9 54/49/8
f 56/52/9 57/53/10 55/54/9
f 58/55/10 57/53/10 56/52/9
f 58/55/10 59/56/11 57/53/10
f 60/57/11 59/56/11 58/55/10
f 60/57/11 61/58/12 59/56/11
f 62/59/12 61/58/12 60/57/11
f 62/59/12 63/60/13 61/58/12
f 64/61/13 63/60/13 62/59/12
f 64/61/13 65/62/14 63/60/13
f 66/63/14 65/62/14 64/61/13
f 66/63/14 67/64/15 65/62/14
f 68/65/15 67/64/15 66/63/14
f 68/65/15 69/66/16 67/64/15
f 70/67/16 69/66/16 68/65/15
f 70/67/16 71/68/17 69/66/16
f 72/69/17 71/68/17 70/67/16
f 72/69/17 73/70/18 71/68/17
f 74/71/18 73/70/18 72/69/17
f 74/71/18 75/72/19 73/70/18
f 76/73/19 75/72/19 74/71/18
f 76/73/19 77/74/20 75/72/19
f 78/75/20 77/74/20 76/73/19
f 78/75/20 79/76/21 77/74/20
f 80/77/21 79/76/21 78/75/20
f 80/77/21 81/78/22 79/76/21
f 82/79/22 81/78/22 80/77/21
f 82/79/22 83/80/23 81/78/22
f 84/81/23 83/80/23 82/79/22
f 84/81/23 85/82/24 83/80/23
f 86/83/24 85/82/24 84/81/23
f 86/83/24 87/84/25 85/82/24
f 88/85/25 87/84/25 86/83/24
f 88/85/25 89/86/26 87/84/25
f 90/87/26 89/86/26 88/85/25
f 90/87/26 91/88/27 89/86/26
f 92/89/27 91/88/27 90/87/26
f 92/89/27 93/90/28 91/88/27
f 94/91/28 93/90/28 92/89/27
f 94/91/28 95/92/29 93/90/28
f 96/93/29 95/92/29 94/91/28
f 96/93/29 97/94/30 95/92/29
f 98/95/30 97/94/30 96/93/29
f 98/95/30 99/96/31 97/94/30
f 100/97/31 99/96/31 98/95/30
f 100/97/31 101/98/32 99/96/31
f 102/99/32 101/98/32 100/97/31
f 102/99/32 103/100/33 101/98/32
f 104/101/33 103/100/33 102/99/32
f 104/101/33 42/38/2 103/100/33
f 43/36/2 42/38/2 104/101/33
f 107/1/3 105/102/2 106/103/3
f 109/3/2 105/102/2 107/1/3
f 41/37/3 105/102/2 42/38/2
f 106/103/3 105/102/2 41/37/3
f 112/4/4 106/103/3 111/104/4
f 107/1/3 106/103/3 112/4/4
f 45/40/4 106/103/3 41/37/3
f 111/104/4 106/103/3 45/40/4
f 115/5/5 111/104/4 114/105/5
f 112/4/4 111/104/4 115/5/5
f 47/42/5 111/104/4 45/40/4
f 114/105/5 111/104/4 47/42/5
f 3/6/6 114/105/5 117/106/6
f 115/5/5 114/105/5 3/6/6
f 49/44/6 114/105/5 47/42/5
f 117/106/6 114/105/5 49/44/6
f 119/7/7 117/106/6 118/107/7
f 3/6/6 117/106/6 119/7/7
f 51/46/7 117/106/6 49/44/6
f 118/107/7 117/106/6 51/46/7
f 122/8/8 118/107/7 121/108/8
f 119/7/7 118/107/7 122/8/8
f 53/48/8 118/107/7 51/46/7
f 121/108/8 118/107/7 53/48/8
f 125/9/9 121/108/8 124/109/9
f 122/8/8 121/108/8 125/9/9
f 55/50/9 121/108/8 53/48/8
f 124/109/9 121/108/8 55/50/9
f 5/10/10 124/110/9 127/111/10
f 125/12/9 124/110/9 5/10/10
f 57/53/10 124/110/9 55/54/9
f 127/111/10 124/110/9 57/53/10
f 7/13/11 127/111/10 128/112/11
f 5/10/10 127/111/10 7/13/11
f 59/56/11 127/111/10 57/53/10
f 128/112/11 127/111/10 59/56/11
f 9/14/12 128/112/11 129/113/12
f 7/13/11 128/112/11 9/14/12
f 61/58/12 128/112/11 59/56/11
f 129/113/12 128/112/11 61/58/12
f 131/15/13 129/113/12 130/114/13
f 9/14/12 129/113/12 131/15/13
f 63/60/13 129/113/12 61/58/12
f 130/114/13 129/113/12 63/60/13
f 11/16/14 130/114/13 133/115/14
f 131/15/13 130/114/13 11/16/14
f 65/62/14 130/114/13 63/60/13
f 133/115/14 130/114/13 65/62/14
f 14/17/15 133/115/14 134/116/15
f 11/16/14 133/115/14 14/17/15
f 67/64/15 133/115/14 65/62/14
f 134/116/15 133/115/14 67/64/15
f 17/18/16 134/116/15 135/117/16
f 14/17/15 134/116/15 17/18/16
f 69/66/16 134/116/15 67/64/15
f 135/117/16 134/116/15 69/66/16
f 137/19/17 135/117/16 136/118/17
f 17/18/16 135/117/16 137/19/17
f 71/68/17 135/117/16 69/66/16
f 136/118/17 135/117/16 71/68/17
f 140/20/18 136/118/17 139/119/18
f 137/19/17 136/118/17 140/20/18
f 73/70/18 136/118/17 71/68/17
f 139/119/18 136/118/17 73/70/18
f 144/21/19 139/119/18 142/120/19
f 140/20/18 139/119/18 144/21/19
f 75/72/19 139/119/18 73/70/18
f 142/120/19 139/119/18 75/72/19
f 20/22/20 142/120/19 145/121/20
f 144/21/19 142/120/19 20/22/20
f 77/74/20 142/120/19 75/72/19
f 145/121/20 142/120/19 77/74/20
f 22/23/21 145/121/20 146/122/21
f 20/22/20 145/121/20 22/23/21
f 79/76/21 145/121/20 77/74/20
f 146/122/21 145/121/20 79/76/21
f 24/24/22 146/122/21 147/123/22
f 22/23/21 146/122/21 24/24/22
f 81/78/22 146/122/21 79/76/21
f 147/123/22 146/122/21 81/78/22
f 26/25/23 147/123/22 148/124/23
f 24/24/22 147/123/22 26/25/23
f 83/80/23 147/123/22 81/78/22
f 148/124/23 147/123/22 83/80/23
f 151/26/24 148/124/23 149/125/24
f 26/25/23 148/124/23 151/26/24
f 85/82/24 148/124/23 83/80/23
f 149/125/24 148/124/23 85/82/24
f 28/27/25 149/125/24 152/126/25
f 151/26/24 149/125/24 28/27/25
f 87/84/25 149/125/24 85/82/24
f 152/126/25 149/125/24 87/84/25
f 30/28/26 152/126/25 153/127/26
f 28/27/25 152/126/25 30/28/26
f 89/86/26 152/126/25 87/84/25
f 153/127/26 152/126/25 89/86/26
f 32/29/27 153/127/26 154/128/27
f 30/28/26 153/127/26 32/29/27
f 91/88/27 153/127/26 89/86/26
f 154/128/27 153/127/26 91/88/27
f 157/30/28 154/128/27 155/129/28
f 32/29/27 154/128/27 157/30/28
f 93/90/28 154/128/27 91/88/27
f 155/129/28 154/128/27 93/90/28
f 34/31/29 155/129/28 158/130/29
f 157/30/28 155/129/28 34/31/29
f 95/92/29 155/129/28 93/90/28
f 158/130/29 155/129/28 95/92/29
f 37/32/30 158/130/29 159/131/30
f 34/31/29 158/130/29 37/32/30
f 97/94/30 158/130/29 95/92/29
f 159/131/30 158/130/29 97/94/30
f 40/33/31 159/131/30 160/132/31
f 37/32/30 159/131/30 40/33/31
f 99/96/31 159/131/30 97/94/30
f 160/132/31 159/131/30 99/96/31
f 163/34/32 160/132/31 161/133/32
f 40/33/31 160/132/31 163/34/32
f 101/98/32 160/132/31 99/96/31
f 161/133/32 160/132/31 101/98/32
f 166/35/33 161/133/32 164/134/33
f 163/34/32 161/133/32 166/35/33
f 164/134/33 101/98/32 103/100/33
f 161/133/32 101/98/32 164/134/33
f 109/3/2 164/134/33 105/102/2
f 166/35/33 164/134/33 109/3/2
f 42/38/2 164/134/33 103/100/33
f 105/102/2 164/134/33 42/38/2
